<svg version="1.1" xmlns="http://www.w3.org/2000/svg">
  <symbol id="icon_hamburger" viewBox="0 0 27 18" fill="none">
    <line y1="1" x2="27" y2="1" stroke-width="2"/>
    <line y1="9" x2="27" y2="9" stroke-width="2"/>
    <line y1="17" x2="27" y2="17" stroke-width="2"/>
  </symbol>

  <symbol id="icon_clear" viewBox="0 0 18 18" fill="none">
    <line x1="16.5303" y1="1.53033" x2="1.53033" y2="16.5303" stroke-width="1.5"/>
    <path d="M15.9545 16L1.35234 1.39766" stroke-width="1.5"/>
  </symbol>

  <symbol id="icon-twitter" viewBox="0 0 45 46">
    <path fill-rule="evenodd" clip-rule="evenodd" d="M33.924 15.748a9.226 9.226 0 01-2.551.7A4.4 4.4 0 0033.321 14a8.844 8.844 0 01-2.806 1.07 4.424 4.424 0 00-7.655 3.027c-.003.34.032.678.104 1.009a12.526 12.526 0 01-9.12-4.627 4.427 4.427 0 001.358 5.913 4.369 4.369 0 01-2-.546v.049a4.446 4.446 0 003.545 4.35c-.379.1-.769.149-1.16.145a3.916 3.916 0 01-.838-.075 4.468 4.468 0 004.134 3.082 8.891 8.891 0 01-5.487 1.887 8.286 8.286 0 01-1.057-.061 12.458 12.458 0 006.789 1.983 12.508 12.508 0 0012.58-13.166 8.829 8.829 0 002.216-2.293z" />
  </symbol>
  <symbol id="icon-vk" viewBox="0 0 45 46">
    <path fill-rule="evenodd" clip-rule="evenodd" d="M34.142 29.527a1.785 1.785 0 00-.085-.172 13.522 13.522 0 00-2.52-3.028l-.025-.028-.014-.013-.013-.013h-.017c-.563-.558-.92-.933-1.069-1.124a1.09 1.09 0 01-.184-1.11 10.37 10.37 0 011.187-1.797c.36-.483.645-.871.856-1.164 1.524-2.102 2.185-3.445 1.983-4.03l-.078-.132a.76.76 0 00-.408-.226 1.984 1.984 0 00-.843-.035l-3.8.024a.472.472 0 00-.264.008l-.172.04-.065.034-.052.04a.574.574 0 00-.146.145.948.948 0 00-.128.24 22.821 22.821 0 01-1.407 3.082 31.168 31.168 0 01-.896 1.474 7.113 7.113 0 01-.685.918c-.156.17-.323.327-.5.472-.15.12-.264.17-.343.15l-.233-.052a.89.89 0 01-.297-.336 1.541 1.541 0 01-.15-.528 5.943 5.943 0 01-.047-.554c0-.155 0-.376.008-.661.008-.286.013-.476.013-.577 0-.347.006-.724.019-1.13l.033-.966c.009-.237.013-.489.013-.755a3.27 3.27 0 00-.047-.626 2.198 2.198 0 00-.139-.44.73.73 0 00-.27-.327 1.479 1.479 0 00-.44-.186 8.543 8.543 0 00-1.78-.184 8.337 8.337 0 00-3.152.336c-.19.104-.359.243-.5.41-.158.202-.18.311-.067.33.216.016.426.076.619.177.193.102.364.242.503.412l.08.166c.086.2.148.411.184.628.064.33.104.664.117 1 .045.572.045 1.147 0 1.718a17.79 17.79 0 01-.128 1.11 2.295 2.295 0 01-.336.946.231.231 0 01-.065.069.947.947 0 01-.356.068.818.818 0 01-.448-.191 3.21 3.21 0 01-.546-.529 6.989 6.989 0 01-.64-.938 16.64 16.64 0 01-.737-1.425l-.211-.397a31.987 31.987 0 01-.54-1.117c-.228-.489-.43-.964-.607-1.425a.908.908 0 00-.317-.439l-.065-.04a1.349 1.349 0 00-.514-.208l-3.613.029a.89.89 0 00-.75.264l-.054.08a.461.461 0 00-.04.218c.005.127.032.252.08.37a46.624 46.624 0 001.72 3.727c.619 1.198 1.157 2.162 1.614 2.894.457.731.923 1.42 1.398 2.068.475.648.79 1.064.943 1.248.154.184.276.32.363.411l.33.323c.289.289.6.554.929.793.437.325.89.628 1.357.905a7.225 7.225 0 001.735.726 5.77 5.77 0 001.919.226h1.515c.262-.007.51-.114.699-.301l.052-.07a.925.925 0 00.099-.253c.032-.123.047-.25.046-.377-.012-.354.017-.71.085-1.057.044-.247.12-.486.226-.712.075-.149.17-.285.284-.405.066-.076.14-.143.224-.2a.839.839 0 01.104-.048.808.808 0 01.745.212c.3.229.57.495.804.793.251.316.552.668.903 1.058.279.323.588.617.923.878l.263.163c.217.128.447.23.686.302.236.088.49.111.738.069l3.376-.056c.27.015.538-.044.778-.172a.668.668 0 00.33-.377c.036-.152.038-.312.007-.466a1.816 1.816 0 00-.092-.364l.005.007z" />
  </symbol>
  <symbol id="icon-fb" viewBox="0 0 45 46">
    <path fill-rule="evenodd" clip-rule="evenodd" d="M28.084 10.917h-3.041a5.382 5.382 0 00-5.627 5.855v2.7h-3.059a.479.479 0 00-.474.486v3.912a.482.482 0 00.477.484h3.056v9.871a.482.482 0 00.48.484h3.988a.483.483 0 00.48-.484v-9.87h3.575a.48.48 0 00.479-.485v-3.912a.496.496 0 00-.14-.344.472.472 0 00-.339-.141h-3.575v-2.29c0-1.1.264-1.659 1.67-1.659h2.05a.48.48 0 00.478-.483v-3.633a.483.483 0 00-.478-.491z" />
  </symbol>
  <symbol id="icon-instagram" viewBox="0 0 45 46">
    <path fill-rule="evenodd" clip-rule="evenodd" d="M26.82 34.709h-8.634a7.081 7.081 0 01-5.088-2.178 7.565 7.565 0 01-2.108-5.258v-8.922c0-1.972.759-3.863 2.108-5.257a7.081 7.081 0 015.088-2.178h8.634c1.908 0 3.738.784 5.087 2.178a7.565 7.565 0 012.108 5.257v8.922a7.565 7.565 0 01-2.108 5.258 7.081 7.081 0 01-5.087 2.178zm5.036-16.358a5.3 5.3 0 00-1.477-3.678 4.962 4.962 0 00-3.559-1.526h-8.634a4.962 4.962 0 00-3.56 1.526 5.3 5.3 0 00-1.476 3.678v8.922a5.3 5.3 0 001.476 3.678 4.961 4.961 0 003.56 1.526h8.634a4.961 4.961 0 003.56-1.526 5.3 5.3 0 001.476-3.678v-8.922zm-3.166-1.14a.75.75 0 01-.426-.134.788.788 0 01-.283-.356.818.818 0 01.166-.864.745.745 0 01.836-.172c.141.06.261.161.345.292a.811.811 0 01-.095 1 .755.755 0 01-.542.233zm-6.187 11.55a5.625 5.625 0 01-3.198-1.003 5.91 5.91 0 01-2.12-2.67 6.133 6.133 0 01-.328-3.436 6.012 6.012 0 011.576-3.046 5.7 5.7 0 012.947-1.628 5.584 5.584 0 013.326.339 5.8 5.8 0 012.583 2.19 6.09 6.09 0 01.97 3.305 6.05 6.05 0 01-1.686 4.206 5.664 5.664 0 01-4.07 1.742zm0-9.666c-.712 0-1.407.218-1.999.627a3.693 3.693 0 00-1.324 1.668 3.832 3.832 0 00-.205 2.148c.139.72.481 1.383.984 1.903s1.144.873 1.842 1.017c.698.143 1.421.07 2.078-.212a3.625 3.625 0 001.615-1.369c.395-.61.606-1.33.606-2.065a3.786 3.786 0 00-1.055-2.626 3.545 3.545 0 00-2.542-1.09z" />
  </symbol>
  <symbol id="icon-youtube" viewBox="0 0 45 46">
    <path d="M33.81 15.408c-.883-1.057-2.51-1.48-5.637-1.48H16.851c-3.191 0-4.851.456-5.733 1.575-.86 1.092-.86 2.7-.86 4.927v4.243c0 4.313 1.02 6.502 6.593 6.502h11.322c2.705 0 4.204-.378 5.174-1.306.994-.952 1.418-2.512 1.418-5.196V20.43c0-2.348-.066-3.966-.954-5.022zm-7.822 7.729l-5.142 2.687a.794.794 0 01-1.156-.7v-5.358a.793.793 0 011.155-.702l5.142 2.67a.793.793 0 010 1.403h.001z" />
  </symbol>
</svg>
